<mxfile host="app.diagrams.net" modified="2023-10-26T07:15:32.668Z" agent="Mozilla/5.0 (Macintosh; Intel Mac OS X 10_15_7) AppleWebKit/537.36 (KHTML, like Gecko) Chrome/118.0.0.0 Safari/537.36" etag="YQj7rOid8SqN2ndJopcV" version="22.0.8" type="github">
  <diagram name="第 1 页" id="IPf1qYe-OVgJylBUmQrq">
    <mxGraphModel dx="1150" dy="742" grid="0" gridSize="10" guides="1" tooltips="1" connect="1" arrows="1" fold="1" page="0" pageScale="1" pageWidth="827" pageHeight="1169" math="0" shadow="0">
      <root>
        <mxCell id="0" />
        <mxCell id="1" parent="0" />
        <mxCell id="5ArOwd_Xz768YnCwjwX0-33" value="" style="rounded=0;whiteSpace=wrap;html=1;fillColor=#e1d5e7;strokeColor=#9673a6;" vertex="1" parent="1">
          <mxGeometry x="887" y="424.5" width="198" height="273" as="geometry" />
        </mxCell>
        <mxCell id="5ArOwd_Xz768YnCwjwX0-35" style="edgeStyle=orthogonalEdgeStyle;rounded=0;orthogonalLoop=1;jettySize=auto;html=1;shape=flexArrow;fillColor=#f5f5f5;strokeColor=#666666;" edge="1" parent="1">
          <mxGeometry relative="1" as="geometry">
            <mxPoint x="820" y="561" as="sourcePoint" />
            <mxPoint x="879" y="561" as="targetPoint" />
          </mxGeometry>
        </mxCell>
        <mxCell id="5ArOwd_Xz768YnCwjwX0-22" value="" style="rounded=0;whiteSpace=wrap;html=1;fillColor=#d5e8d4;strokeColor=#82b366;" vertex="1" parent="1">
          <mxGeometry x="320" y="427" width="486" height="268" as="geometry" />
        </mxCell>
        <mxCell id="5ArOwd_Xz768YnCwjwX0-38" style="edgeStyle=orthogonalEdgeStyle;rounded=0;orthogonalLoop=1;jettySize=auto;html=1;shape=flexArrow;fillColor=#f5f5f5;strokeColor=#666666;" edge="1" parent="1">
          <mxGeometry relative="1" as="geometry">
            <mxPoint x="246" y="257" as="sourcePoint" />
            <mxPoint x="312" y="257" as="targetPoint" />
          </mxGeometry>
        </mxCell>
        <mxCell id="5ArOwd_Xz768YnCwjwX0-1" value="" style="sketch=0;outlineConnect=0;fontColor=#232F3E;gradientColor=none;fillColor=#232F3D;strokeColor=none;dashed=0;verticalLabelPosition=bottom;verticalAlign=top;align=center;html=1;fontSize=12;fontStyle=0;aspect=fixed;pointerEvents=1;shape=mxgraph.aws4.source_code;" vertex="1" parent="1">
          <mxGeometry x="168" y="211.5" width="65.77" height="90" as="geometry" />
        </mxCell>
        <mxCell id="5ArOwd_Xz768YnCwjwX0-24" style="edgeStyle=orthogonalEdgeStyle;rounded=0;orthogonalLoop=1;jettySize=auto;html=1;shape=flexArrow;fillColor=#f5f5f5;strokeColor=#666666;" edge="1" parent="1">
          <mxGeometry relative="1" as="geometry">
            <mxPoint x="562.87" y="353" as="sourcePoint" />
            <mxPoint x="562.87" y="419" as="targetPoint" />
          </mxGeometry>
        </mxCell>
        <mxCell id="5ArOwd_Xz768YnCwjwX0-3" value="" style="rounded=0;whiteSpace=wrap;html=1;fillColor=#dae8fc;strokeColor=#6c8ebf;" vertex="1" parent="1">
          <mxGeometry x="321" y="175" width="485" height="163" as="geometry" />
        </mxCell>
        <mxCell id="5ArOwd_Xz768YnCwjwX0-5" value="词法分析" style="rounded=1;whiteSpace=wrap;html=1;fillColor=#dae8fc;strokeColor=#6c8ebf;" vertex="1" parent="1">
          <mxGeometry x="360" y="244" width="120" height="60" as="geometry" />
        </mxCell>
        <mxCell id="5ArOwd_Xz768YnCwjwX0-6" value="语法分析" style="rounded=1;whiteSpace=wrap;html=1;fillColor=#dae8fc;strokeColor=#6c8ebf;" vertex="1" parent="1">
          <mxGeometry x="513" y="244" width="120" height="60" as="geometry" />
        </mxCell>
        <mxCell id="5ArOwd_Xz768YnCwjwX0-7" value="中间代码生成" style="rounded=1;whiteSpace=wrap;html=1;fillColor=#dae8fc;strokeColor=#6c8ebf;" vertex="1" parent="1">
          <mxGeometry x="661" y="244" width="120" height="60" as="geometry" />
        </mxCell>
        <mxCell id="5ArOwd_Xz768YnCwjwX0-8" value="代码建模" style="text;html=1;strokeColor=none;fillColor=none;align=center;verticalAlign=middle;whiteSpace=wrap;rounded=0;" vertex="1" parent="1">
          <mxGeometry x="515" y="186" width="78" height="30" as="geometry" />
        </mxCell>
        <mxCell id="5ArOwd_Xz768YnCwjwX0-9" value="" style="shape=document;whiteSpace=wrap;html=1;boundedLbl=1;fillColor=#ffe6cc;strokeColor=#d79b00;" vertex="1" parent="1">
          <mxGeometry x="77" y="464" width="160" height="118" as="geometry" />
        </mxCell>
        <mxCell id="5ArOwd_Xz768YnCwjwX0-13" value="Source识别" style="rounded=1;whiteSpace=wrap;html=1;fillColor=#d5e8d4;strokeColor=#82b366;" vertex="1" parent="1">
          <mxGeometry x="375" y="535" width="120" height="60" as="geometry" />
        </mxCell>
        <mxCell id="5ArOwd_Xz768YnCwjwX0-14" value="Sink识别" style="rounded=1;whiteSpace=wrap;html=1;fillColor=#d5e8d4;strokeColor=#82b366;" vertex="1" parent="1">
          <mxGeometry x="375" y="618" width="120" height="60" as="geometry" />
        </mxCell>
        <mxCell id="5ArOwd_Xz768YnCwjwX0-16" value="" style="shape=document;whiteSpace=wrap;html=1;boundedLbl=1;fillColor=#ffe6cc;strokeColor=#d79b00;" vertex="1" parent="1">
          <mxGeometry x="87" y="474" width="160" height="118" as="geometry" />
        </mxCell>
        <mxCell id="5ArOwd_Xz768YnCwjwX0-17" value="" style="shape=document;whiteSpace=wrap;html=1;boundedLbl=1;fillColor=#ffe6cc;strokeColor=#d79b00;" vertex="1" parent="1">
          <mxGeometry x="97" y="484" width="160" height="118" as="geometry" />
        </mxCell>
        <mxCell id="5ArOwd_Xz768YnCwjwX0-18" value="&lt;font style=&quot;font-size: 14px;&quot;&gt;污点分析规则：&lt;br&gt;路由规则&lt;br&gt;Source规则&lt;br&gt;Sink规则&lt;br&gt;污点传播规则&lt;/font&gt;" style="text;html=1;strokeColor=none;fillColor=none;align=left;verticalAlign=middle;whiteSpace=wrap;rounded=0;" vertex="1" parent="1">
          <mxGeometry x="106.77" y="495" width="127" height="88" as="geometry" />
        </mxCell>
        <mxCell id="5ArOwd_Xz768YnCwjwX0-19" value="路由识别" style="rounded=1;whiteSpace=wrap;html=1;fillColor=#d5e8d4;strokeColor=#82b366;" vertex="1" parent="1">
          <mxGeometry x="375" y="458" width="120" height="60" as="geometry" />
        </mxCell>
        <mxCell id="5ArOwd_Xz768YnCwjwX0-20" value="数据流分析" style="rounded=1;whiteSpace=wrap;html=1;fillColor=#d5e8d4;strokeColor=#82b366;" vertex="1" parent="1">
          <mxGeometry x="629" y="479" width="120" height="60" as="geometry" />
        </mxCell>
        <mxCell id="5ArOwd_Xz768YnCwjwX0-21" value="依赖关系分析" style="rounded=1;whiteSpace=wrap;html=1;fillColor=#d5e8d4;strokeColor=#82b366;" vertex="1" parent="1">
          <mxGeometry x="632" y="583" width="120" height="60" as="geometry" />
        </mxCell>
        <mxCell id="5ArOwd_Xz768YnCwjwX0-23" value="代码识别与污点分析" style="text;html=1;strokeColor=none;fillColor=none;align=center;verticalAlign=middle;whiteSpace=wrap;rounded=0;" vertex="1" parent="1">
          <mxGeometry x="497" y="435" width="132" height="36" as="geometry" />
        </mxCell>
        <mxCell id="5ArOwd_Xz768YnCwjwX0-28" value="&lt;font style=&quot;font-size: 14px;&quot;&gt;CFG&lt;/font&gt;" style="text;html=1;strokeColor=none;fillColor=none;align=center;verticalAlign=middle;whiteSpace=wrap;rounded=0;" vertex="1" parent="1">
          <mxGeometry x="579" y="361" width="60" height="30" as="geometry" />
        </mxCell>
        <mxCell id="5ArOwd_Xz768YnCwjwX0-29" value="漏洞去重" style="rounded=1;whiteSpace=wrap;html=1;fillColor=#e1d5e7;strokeColor=#9673a6;" vertex="1" parent="1">
          <mxGeometry x="928" y="487.5" width="120" height="60" as="geometry" />
        </mxCell>
        <mxCell id="5ArOwd_Xz768YnCwjwX0-31" value="漏洞展示" style="rounded=1;whiteSpace=wrap;html=1;fillColor=#e1d5e7;strokeColor=#9673a6;" vertex="1" parent="1">
          <mxGeometry x="928" y="576.5" width="120" height="60" as="geometry" />
        </mxCell>
        <mxCell id="5ArOwd_Xz768YnCwjwX0-34" style="edgeStyle=orthogonalEdgeStyle;rounded=0;orthogonalLoop=1;jettySize=auto;html=1;shape=flexArrow;fillColor=#f5f5f5;strokeColor=#666666;" edge="1" parent="1">
          <mxGeometry relative="1" as="geometry">
            <mxPoint x="261" y="542" as="sourcePoint" />
            <mxPoint x="317" y="542.38" as="targetPoint" />
          </mxGeometry>
        </mxCell>
        <mxCell id="5ArOwd_Xz768YnCwjwX0-37" value="&lt;font style=&quot;font-size: 14px;&quot;&gt;AST&lt;br&gt;&lt;br&gt;IR&lt;br&gt;&lt;/font&gt;" style="text;html=1;strokeColor=none;fillColor=none;align=center;verticalAlign=middle;whiteSpace=wrap;rounded=0;" vertex="1" parent="1">
          <mxGeometry x="488" y="366" width="60" height="30" as="geometry" />
        </mxCell>
        <mxCell id="5ArOwd_Xz768YnCwjwX0-44" value="&lt;font style=&quot;font-size: 16px;&quot;&gt;源代码&lt;/font&gt;" style="text;html=1;strokeColor=none;fillColor=none;align=center;verticalAlign=middle;whiteSpace=wrap;rounded=0;" vertex="1" parent="1">
          <mxGeometry x="90" y="234" width="60" height="30" as="geometry" />
        </mxCell>
        <mxCell id="5ArOwd_Xz768YnCwjwX0-53" style="edgeStyle=orthogonalEdgeStyle;rounded=0;orthogonalLoop=1;jettySize=auto;html=1;shape=flexArrow;fillColor=#f5f5f5;strokeColor=#666666;" edge="1" parent="1">
          <mxGeometry relative="1" as="geometry">
            <mxPoint x="271" y="983" as="sourcePoint" />
            <mxPoint x="408" y="983" as="targetPoint" />
          </mxGeometry>
        </mxCell>
        <mxCell id="5ArOwd_Xz768YnCwjwX0-45" value="" style="sketch=0;outlineConnect=0;fontColor=#232F3E;gradientColor=none;fillColor=#232F3D;strokeColor=none;dashed=0;verticalLabelPosition=bottom;verticalAlign=top;align=center;html=1;fontSize=12;fontStyle=0;aspect=fixed;pointerEvents=1;shape=mxgraph.aws4.source_code;" vertex="1" parent="1">
          <mxGeometry x="193" y="938" width="65.77" height="90" as="geometry" />
        </mxCell>
        <mxCell id="5ArOwd_Xz768YnCwjwX0-46" value="&lt;font style=&quot;font-size: 16px;&quot;&gt;源代码&lt;/font&gt;" style="text;html=1;strokeColor=none;fillColor=none;align=center;verticalAlign=middle;whiteSpace=wrap;rounded=0;" vertex="1" parent="1">
          <mxGeometry x="115" y="960.5" width="60" height="30" as="geometry" />
        </mxCell>
        <mxCell id="5ArOwd_Xz768YnCwjwX0-48" value="&lt;font style=&quot;font-size: 15px;&quot;&gt;组件识别&lt;/font&gt;" style="rounded=0;whiteSpace=wrap;html=1;fillColor=#dae8fc;strokeColor=#6c8ebf;" vertex="1" parent="1">
          <mxGeometry x="417" y="939.25" width="191" height="87.5" as="geometry" />
        </mxCell>
        <mxCell id="5ArOwd_Xz768YnCwjwX0-55" style="edgeStyle=orthogonalEdgeStyle;rounded=0;orthogonalLoop=1;jettySize=auto;html=1;shape=flexArrow;fillColor=#f5f5f5;strokeColor=#666666;" edge="1" parent="1">
          <mxGeometry relative="1" as="geometry">
            <mxPoint x="435" y="1227" as="sourcePoint" />
            <mxPoint x="340" y="1227" as="targetPoint" />
          </mxGeometry>
        </mxCell>
        <mxCell id="5ArOwd_Xz768YnCwjwX0-50" value="&lt;font style=&quot;font-size: 15px;&quot;&gt;&lt;font style=&quot;font-size: 15px;&quot;&gt;组&lt;/font&gt;&lt;span style=&quot;&quot;&gt;件漏洞库&lt;/span&gt;&lt;/font&gt;" style="shape=cylinder3;whiteSpace=wrap;html=1;boundedLbl=1;backgroundOutline=1;size=15;fillColor=#d5e8d4;strokeColor=#82b366;" vertex="1" parent="1">
          <mxGeometry x="444.5" y="1143" width="136" height="167" as="geometry" />
        </mxCell>
        <mxCell id="5ArOwd_Xz768YnCwjwX0-52" value="&lt;font style=&quot;font-size: 15px;&quot;&gt;漏洞展示&lt;/font&gt;" style="rounded=0;whiteSpace=wrap;html=1;fillColor=#dae8fc;strokeColor=#6c8ebf;" vertex="1" parent="1">
          <mxGeometry x="140" y="1182.75" width="191" height="87.5" as="geometry" />
        </mxCell>
        <mxCell id="5ArOwd_Xz768YnCwjwX0-54" style="edgeStyle=orthogonalEdgeStyle;rounded=0;orthogonalLoop=1;jettySize=auto;html=1;shape=flexArrow;fillColor=#f5f5f5;strokeColor=#666666;" edge="1" parent="1">
          <mxGeometry relative="1" as="geometry">
            <mxPoint x="512" y="1035" as="sourcePoint" />
            <mxPoint x="512" y="1133" as="targetPoint" />
          </mxGeometry>
        </mxCell>
        <mxCell id="5ArOwd_Xz768YnCwjwX0-56" value="&lt;h1 style=&quot;&quot;&gt;&lt;ul&gt;&lt;li&gt;&lt;span style=&quot;font-weight: normal;&quot;&gt;&lt;font style=&quot;font-size: 16px;&quot;&gt;AST：Abstract Syntax Tree，抽象语法树&lt;/font&gt;&lt;/span&gt;&lt;/li&gt;&lt;li&gt;&lt;span style=&quot;font-weight: normal;&quot;&gt;&lt;font style=&quot;font-size: 16px;&quot;&gt;IR：Intermediate Representation，中间表示&lt;/font&gt;&lt;/span&gt;&lt;/li&gt;&lt;li&gt;&lt;span style=&quot;font-weight: normal;&quot;&gt;&lt;font style=&quot;font-size: 16px;&quot;&gt;CFG：Control Flow Graph，控制流图&lt;/font&gt;&lt;/span&gt;&lt;/li&gt;&lt;/ul&gt;&lt;/h1&gt;" style="text;html=1;strokeColor=none;fillColor=none;spacing=5;spacingTop=-20;whiteSpace=wrap;overflow=hidden;rounded=0;" vertex="1" parent="1">
          <mxGeometry x="882" y="194" width="408" height="124" as="geometry" />
        </mxCell>
        <mxCell id="5ArOwd_Xz768YnCwjwX0-61" value="" style="shape=image;html=1;verticalAlign=top;verticalLabelPosition=bottom;labelBackgroundColor=#ffffff;imageAspect=0;aspect=fixed;image=https://cdn4.iconfinder.com/data/icons/socialcones/508/Gitlab-128.png" vertex="1" parent="1">
          <mxGeometry x="289" y="1500" width="106" height="106" as="geometry" />
        </mxCell>
        <mxCell id="5ArOwd_Xz768YnCwjwX0-62" value="" style="shape=image;verticalLabelPosition=bottom;labelBackgroundColor=default;verticalAlign=top;aspect=fixed;imageAspect=0;image=data:image/jpeg,/9j/4AAQSkZJRgABAQAAAQABAAD/2wCEAAoHCBYIFRUWFhYZGBUYGhocHBwcGhoeGB8jHBgcIxkZGRYcIy4oHB4sIRkcJzgsLC8xNTY2HCQ7QDszPy40NTEBDAwMEA8QHxISHzYsJCg2ND8xNDQ0NDQ0MTY0MTg0ND80NDQ0NDQ0NDQ2NDU0NDU0NDQ1MTQ0NDE0NDo0NDQ0Nf/AABEIAOEA4QMBIgACEQEDEQH/xAAcAAEAAwEBAQEBAAAAAAAAAAAABAUHBgIDCAH/xABEEAACAQMCAwQHBQUGBAcAAAABAgADBBEFEiExQQYiUWEHExQycYGRQlKCobEVI3KSwSRiotHh8BZDssIzNGNzg6Oz/8QAGgEBAAMBAQEAAAAAAAAAAAAAAAIDBAEFBv/EACcRAQACAgEDBAICAwAAAAAAAAABAgMRIQQSMQUiQVFhsXGhEyOB/9oADAMBAAIRAxEAPwDZoiICIiAiIgIiICIiAiIgIiICIiAiIgIiICIiAiIgIiICIiAiIgIiICIiAiIgIiICIiAiJGvLxLFC9R1RFGSzMFUfEmBIiZprfpbt7Ylbam1dh9pu5T+WRub+UDznM0O2WsdpXK23dAPH1VNAq+TVKu4A/MGHdNxiY8ND16rxN4AfA1mB+iJifx17Q6X3hUNZRzCmi4+jKHPy4yO4+3e2WxxMh070rVrJhTvrbBHMoGSoOPM0ah4jzDDymm6PrFHWqYq0HDofDmD4Mp4qfIySKxiIgIiICIiAiIgIiICIiAiIgIiICIiAiIgIic5207Qr2ctqj7lFYqRSViMsx4AhebBcgnyECv7V9tl0hxbW6G5vG4CmvupkZBqEeXHHhxJUcZxOtWwH7/Vbhq9QcVtqZ20kzyHDqc44cTniWHGVvZ3W10+k4tqVa5vqvGrVCFtu45Kg8ST1JxgnJ6AS+7C2P7WuKtSuhVrZlApvxYO4J9Y4PUD3fMk+E5M6jaURuUjSuyR1sI9zSS2t1O6na01CseHvV6gG7J+6CPPHKdxb00skVKaKiKMKqgKo+AE91H3fCV2qarQ0hQ1eqlMN7oY95sc9qDifkJmtabStisQsTUJnnefGQdM1Ojqyb6NRXTOCRngcZwynipwRwI6yZIztPhH1GwpaomysiVE8GUHHmp5qfMYMzjVNJuOwFUXdmxa3JAdGJIAzwR/vJk8G5qT58dPlH2p7R22goFro1Q1QwFNQCWUcGLbiAF444yVLWieEbVjXLoOzOv0u0lBa1I+TKfeRhzVvrwPUEGXU/PHY/tJT7P3++kXW0qsFdXxuVSe6WIJBKEk557d3Uz9DzUzkREBERAREQEREBERAREQEREBERAREQP5MEx/xvfXFxXZha0fA8dm4ilTTwLbSSeeSeWQRqvbTtRR7N0SXO6q6sKdMe8xxjcfBRnifkMnAmQ9lX9XZsg+1ccfMJSTH5uYdh0dTWHRdlBRQoj3UQAH4s3Mmff0dFnub9yScigpJOSTh85J64lJOp9G9DbQr1OtS4f6JhQPqrfWQyTqqVI3Z0+oXq6dSq1mGVpo7keO1ScflON0Hsl+1/wC2ahmpXq4YISQiKfcUqOPI+6eA8CcmdyyhwQQCDwIPI+RE/szRaYjhdNdzyh6bpVHSgwo01phyCwUYBIGAfpJkj6qtRKFR6XGqqF0X7xXvbPxY2/OLC8TUaaVUO5HUMp8iOR8xyPwiYnzLsTHhInnYN27A3YxnHHGc4z4cZB1HUxYVLZGHdruybs42tsLIMddxUj44lio3Rocd277KU9Vo1KqIFuEUtlQBvCjLK4HvZGcHmDjpkHr+xN+dUsbWoxyxpqGPiy91j9VMq2uzRvGtnPcq0g9PPUr3a1MfLa34mkT0P3ANh6rcC9GrUVhnioLFhkdAcnHz8JfimdalTfXmHfRES1WREQEREBERAREQEREBERAREQP5KXtV2gp9m7dqz8TyRc8XY+6o8upPQAmXJOJgfabVz2yvWIJ9lo5VB0Izxf4uRn+EDwnLWisblZix2yXilfMq6pVfV3qXt0dxPEL0IHuqq9EHIDrzOeJP27K6Bd6zSbY60bYOWaoxwC20KdhAy2MAHiB554T12gOKDBeQ2/kw4Ts9Z01LjR7ZVGQKNHYMnbvqbF9Y6j3iC7HjwyxlNLzMb+5betwVwzXFX4jcz9zLldb0i57KbHqOte3c43rngeeDniDgEjiQcHlOy9HVcGjWp9adZyPNagDqfqzD5SEnY5rYVbEVHa0rUw6OwDerq06ibsAYADBgccOR8CTedluzKdm1qbXd2qFdxbAHdBwAo5czzJi9omNMlazE7X8REpWuR1fXNS06s6pZitQyNjIWzjA97BODnP2RHYOxubX2l66epSq+9KOfcJLGowXJ2A5XhnoeAnXRJd3GtI9vO1R2p0j9t2z01O2oCHpty2upyhz08M+BlToWtVe0VtVpK/qL6mNj5UHawOA+0g91sEHgcHPkT1xXbOK7Z6Q9m37Rtjsr0hmov2aiAd7cOpCjj4gDqqxXniXLfbzpXZS8q16Ne9u95otuREzzPPL7VwDyIC8RwzOB07Uq/Z25e5oHgtWojr9l13nuv5HoehwfjsPZ/WF1m2S4ClAwbKnjgoSGweoypwfDwmSaQPaKOWGQ7OxH8TGS75rzK/p+njNbt/Ey3jQdYp69QSvSPdYcQfeUj3kYdCDwlnMK7Aa2ey956h2/s9wVGTyVjwR/Lj3G8sE8Fm6TRExMbhivSaWms+YeoiJ1EiIgIiICIiAiIgIiICIiBxHpU1s6RZMqHFS4Pq18QpGajeXdBGehYTM9JtfYqSj7bd4/PkPkMCW/pRuv2nqdKhzSiigj+83ff6oEEh1GyZl6i3ir2/ScUc5Z/iHwuKXtCMn3gR/kZfej7XkuaXsFwQroSqbjgOuc7AfvqeQ8MY5GUsg6hpiXvH3W8fH4jrKsdoj2z4aut6WcsRavmP7hr+o6pR03Z611QuwVAfeZiQAFUcTxI48hJh4TIvR3aJU1HZW77pTZkLEkblKlTg9QrMR4c5r7jBMstWI8PD53MT8PMTwKilimRuADEdcEkA/DKn6T3IpEr9erVLe2rtRGaq03ZQBk5CkjC9T5Txr96lrtSop9nqEo9VX2+rLDuFiOKgtwDA904nM32l6tpxJtrr2in0WoKfrPIbmXDfHcJKtUZlNX0h2ddQVNV3I/8NaTs+ce6OGPzkeu1/2qVk9V7HauCGaoN1w6nmAnDZkZBz9TIGn6hrQq01qUAELoHISn7u4bzuV/DPKeLvQtV1+rUStWNK23uB3kGU3nbhKfFu7j3yJZqI+kdzK51C/oaRptdLdw60KfqQwIPfcbQCyjBfLZOOWek4ewp+ppovgo/TjLTtstOyW102gMIhFRx1PPbvPUnLsfw+UhynJPER9vW9MpzNv+K3XLX2imW6px+X2h/X5TZfR9rZ16ypOxzVT93U8dyY4nzZSrfimVkbuEuvQ3em0ubq1J4Mu9R5o21j8SrL/LLentuJhT6rh1aMkfPEtiiImh5BERAREQEREBERAREQERED8+XVf23U76r4PUUfhcIPySSJWaYc17s9TUb86j5lnMOaffL6b06NdPH52REiXl+ln7xy33Rz/0+criJmdQ2XyVx13adQ8NcHRrm3u15I67x4qch+HXKFh8cTbmcVQrKcqwBBHIgjII+UwCoK+r8l2pzGeAPhx5t+k7XsF2zSwQWl22zZwR290L0pufs46HljA4YGdk47RSNvmc+bHfNM08T+3V9o7WqNlzbjdXoZ7ucCojY30vidoZT4qPGWGk6lT1aktWmcq3MHgyke8jr0YHgRJFGslwMo6uvQqwYfUTi+0zpoFdq9tcUadw2DWt3cBKo+9t+w/g3DPjzzXEb4Qmdcu0uKCXSOjqGRwVZTyIIwQZwdXsvqWkHbZXmaOe6lRssg6KAyspHmMfCWmjdv7TUQA7eofqrnuZ/u1R3SPjg+UvKmuW1NdzXNEL4+sT/OI7q8acnVnL21lrbkB7mgi9W2IzfICmAfqJ0WraovZ22NSsxdkULkhVao+OACqABk+AwBk9JQaz6R7ayBFENXfpjK0x8XYcR/CD8pnWoa4+v1g9y52D3UUYRfIDp5scn+k60m08xpG1orHHKVpdY6g9a4dt1V3JbyzjgB0HIDyUCWcoL20bTW9ZSPc69ceR8VlpYX63o4cGHNf6jxErz4rVncvZ9N6vHakY44mP7S5/Oylb2LWLYg4DkqfMNTZQP5gp+U/siWR26lYn/wBWiP8A7f8AWRwT7lnqld4d/Uv0NERNr5wiIgIiICIiAiIgIiICIiB+c6KG2u71DzFWoP5arAfkRJ9SoKQLMcAczPfbG2/Zur1x0q4Zfg6DP+NGEg6xTNSi+OmG+hyfymPLX/ZG/l9B0OWY6WZrzMbQK+qPdnZRU5P2uvxH3R5mSrHSFod9zvfnx90fXmfMz+6CVal3QAwJDeZ6E/IzxUqM/M/7+E9DFirSu4fPdT1WXNee6U6pdqnLify+sqb2n7UwfgHGMcAQcHgGB5ifWJbbnyy19s7he2WqaXW/85Yeoc86lBnFI+YRGBT4AH4yl02ypXau7KWD1H27mYkKD3RuJySBwyePCeCMyRo5CoydUqN9GwRMfU1mtdw9j0ua3zatETxPlHudAR+NNip+63Efzcx+c9aeKFuypcWDPU6MlZ0DY6lMlT0yQwHHlLWV9O1qXtx/ZabVaiKd4D90A8Bl2bA454A9PIzPjva3Hl6PWdLgpEX8c86+v4eKvq9XqECnTtaSNgU0A9Y3m9Q95j+X6mTc2aGm6KijgcHHHIHA555n1u9Gu9AZqtWiXWpjLUe+EwDwfhkcOvLhzkR9UXYX2VApHBih2nw7/LnO3i/dwj02Tpa45iZjc73vz+EfS7oqi54rjGPyketRW3r0jTOAxHDw494fDGZ7s12Ig8v1nuwT11dm6IuPmf8AZm3NOsfLxekpNupiK/a6kfR09o1WyXwdD/IWc/kskSX6NbX9oaq1TGVoJUbPTJUU1HzDMflMGCPdt7/qltYYj7luERE2PniIiAiIgIiICIiAiIgIiIGU+mjSyot7xBxpn1bnyJ3UyT4Btw+LzlqNQXCBhyYZ+vSbZrulJrVCrbv7tRSM9QeasPNWAI+EwPTg+nVKltVG2pTZhjpke8B5H3h4g5lGeu43Hw9P03NFbzjt4lH0gm0rvTPI5x8uKn+UmSbhdjsPP9Z8dXX2erSqeYB+R/yJ+kl364b4ia8Fu6m3mdbi/wAWeYRp4qOKYJPIT3PjdLvQj4f9Qlk+GWPL7sNvAz4rXNk5cKWVlwQOeQe6fpkSdfjD/ISHVBZSBwOOE5esWiaysw5bY7RevmFhpNtW18t/yqKnDMOLk9VUnr4nHDzlnd2v/CdSjdW4IRMJWTJO5GPFjnr/AF2+cruz/aZdMRaNZCqrnDqM8ySSy9efMZ+E69XpavTYKyujqVO055jB+BkKY6RXUeU83UZsl+687h0949JEu63tJf19qaiUWddqolIgvSTmAcjJ8ZxdpWTTrGk1Qd1aKAg9SUA24PMknHznx0W6RNPv6FVEN1a0qlujkDfsrZVFVuYG58AeGPGU2v3vtLrRQ/u6OAfBnAx8wo4fEnwinG0cnOlPSX1KkkAc2IHIZ47R5DlJmiU9qFzzdi3y6f785AviXCovvOQJdF0tFALBQAAMnHKZ+qtxFYet6RjjunLbxD+Xtf2ZGfwHD49B9Z3PoZ0k21tUuGHervhT12U8gH5uX+WJmlc/tuvQtkZVV3VSxOFBY4zk+AycdTgDjP0VYWa6fTSkgwlNVVR5KMD9JHDTtrufk9RzxkydtZ4j9pUREuecREQEREBERAREQEREBERA/kzL0rdlWugL6gD62mB60LzZF5OB1Zeviv8ACBNNiHYnXMPzPfXS6hb7vtIylh8eGR5HMn1n9alNvFR+YE6D0jdhDphe6th+4OTUpj/l9SyjrTzxI+z8Pd5q2bfb0z4cPpkf0ksMa3EHWZpyzW0+fE/l4kG4u9m5SOORgjljI5+BxJ3A8xkdQZ87mjTKOBTCttbBBPA44H6y20TrhmrMb5er7UabNkNkY8DIqaitU4QM58FGT9AZuvZns/ZG3t6qWtAF6VN93q0Ld5Ac7iCes6WnTFMYAAHgAAPoJXN5lbGOsPzY1KrVGPZa7D/2nP6LIvstezbelG4pEddlRfz2jhP1BE5NpdisR4fletqdS4cuz5chVZhgE7GBXcBwJBVT+ET7W90zbURCzHgFAZmJ8gBknmZoXpHC0by2cj3kqgnHE7WXH/WZy1peihf2VUcAKtME+RcAn6OZ2N9u9kzEzqYV1jp11qdwtJKbCvjgrAoUHVmDe6O9z8xjpO4tfRrRsCr6jeKGYgLTRsFz90O/ec+SqDOn7T0RYarptwBj1oqUHPjhd1PPzJ+glpfaV7HXNeibZK1T3qlwKlSof7lM712L/dU48pD52nuddvwqe0Ho7s7+2It6K0qwQmmwDKSQOC1A3Fg3IlgSM5kr0W622tWKhyTVoMabFs7iAAUY54k7SASeZVp1Njv2A1HR2PVFKr8gWb9ZmvYNjpesahbD3KgaoB0GHVkwP4axHyEONViIgIiICIiAiIgIiICIiAiIgIiIFL2wT1tjeL429X/82mC2DZt0/ib9T/nP0ZeW63lN6be66sh8cMpBx8jMO1r0b3ui5aj/AGimPucKmPFqR978JY+Qkq27ZRtXujSmn8YZEhU7/BKuCrA4PA8D4FTxBkxKgfkQfgZbFolR2zXy2r0a3XtWm2p6ohpn/wCN2T9FB+c6qZ56HbnfbV6XWlXbH8LqrD/FumhyhpIiIGQ+lRP3lo3nXX6hD/2zPNVY0wjL7ykkfEYI/MTTfSrQeqttsUu/tDKqjmSyPwH8sz5tFuru5pWj0wleoNyqxAGMMdzMpbAwjefDlJRaO3SM1nuiWj9v9ep50196Arc06jDcC4QodzFRxCjcOnhJt32x026YF3o1W5DNBnY+Q7plloPYGy0qkivb0qlUKu93TfubA3sofO0E5wBifLUfR/Qr1fXUKtW0qFQpFAoiHHXbt4H4EDhIppelX9AI70aa0kwdzepaiOXFjvVcgePKc16PwNa1K/vlH7oKtFG6NwTJH4aan4OJNrejT23hcX93VT7pcAH4ggj8p2GkaVS0WktGioSmvTiSSebMTxJJ6mBYxEQ4REQEREBERAREQEREBERAREQERECh17spadoONeiC/IOuVqD8a4JHkcjynE3fodpsSaV06jwdFcj5qUmqRAyb0b0D2d1O9sXYtlFKtjAbZgqQuTgla2fwmazMy7dL+w9U06+5I59U56dVyfwVGP4JpsBERA4XtqNlSyPhe0v8SuP6yn7VsNO1LS7k8BvNJj/HhR9BUYy09J9T2OilbGfVXFvUxyztfGM+ecTkbu4u+3z2yU7R6VFKiv61t23HVt5VQRjjhcknEOtsiIhwiIgIiICIiAiIgIiICIiAiIgIiICIiAiIgIiIHJ+kbQW7QWVSmg3VUIdBwySvBlBPUqWHxInDUfSNqOiALdWe4LgbmWpSJx4uQysfMCbLEDKaPpooY79s4bqFdGH1bb+kVvTNQPuW9TPm9P8AoTNQa2RuaqfwiEoKnJVHwAgYlq3am77Z02t6VkxWoV7wLue6wZTv2qicVHPhNf7OWTadaW1FyC9KjTQ45ZRApweo4S0iAiIgIiICIiAiIgIiICIiAiIgIiICIiAiIgIiICIiAiIgIiICIiAiIgIiICIiAiIgIiICIiAiIgIiICIiAiIgIiICIiAiIgIiICIiAiIgIiICIiAiIgIiICIiB//Z;" vertex="1" parent="1">
          <mxGeometry x="453" y="1505.33" width="100.67" height="100.67" as="geometry" />
        </mxCell>
      </root>
    </mxGraphModel>
  </diagram>
</mxfile>
